<svg width="103" height="20" viewBox="0 0 103 20" fill="none" xmlns="http://www.w3.org/2000/svg">
<path d="M13.2992 4.78976C8.22414 3.57053 4.67746 6.46785 2.4959 3.21001C2.48937 3.19689 2.48284 3.19033 2.47631 3.17723C2.41753 3.08546 2.4959 2.95436 2.6004 2.98057C7.09417 4.05561 7.82572 3.38699 9.71336 3.61641C11.4573 3.82617 13.2992 4.78976 13.2992 4.78976Z" fill="#16191D"/>
<path d="M14.1941 5.60904C9.72643 4.94699 6.55858 8.29659 4.168 5.72048C4.16147 5.71393 4.15494 5.70082 4.14188 5.69427C4.07656 5.62216 4.12228 5.49106 4.22025 5.49762C8.30254 5.79914 9.26268 5.07809 10.9414 5.00599C12.5089 4.94044 14.1941 5.60904 14.1941 5.60904Z" fill="#16191D"/>
<path d="M15.0236 6.6644C11.1242 6.13345 9.45213 9.64693 6.29081 7.49689C6.28428 7.49034 6.27775 7.48378 6.26468 7.47068C6.19937 7.41168 6.21897 7.24125 6.3104 7.24125C9.76564 7.24781 10.667 6.44153 12.1236 6.26455C14.0962 6.02856 15.0236 6.6644 15.0236 6.6644Z" fill="#16191D"/>
<path d="M16.7806 7.82466C14.7427 8.04097 15.0628 9.67972 12.829 9.31265C12.5351 9.26675 12.6004 9.05699 12.731 9.01767C14.6056 8.48016 14.6056 8.11963 15.2784 7.85087C15.9185 7.60834 16.7806 7.82466 16.7806 7.82466Z" fill="#16191D"/>
<path d="M15.8595 7.31994C12.9203 7.37894 12.1692 9.49621 9.69369 8.80793C9.31485 8.70304 9.44549 8.41462 9.64797 8.38841C12.4827 7.93612 12.6198 7.5166 13.6714 7.2675C14.6577 7.03153 15.8595 7.31994 15.8595 7.31994Z" fill="#16191D"/>
<path d="M14.1809 4.78323C14.1613 4.816 14.1156 4.82255 14.083 4.80944C13.4755 4.46203 12.9073 4.05561 12.2542 3.60988C11.6402 3.19691 10.3208 2.63318 7.57749 2.76428C6.27116 2.82983 4.28555 3.09859 2.23461 1.68926C1.7382 1.35495 1.23526 0.784665 0.973997 0.253718C0.947872 0.207826 0.93481 0.148828 0.928279 0.08983C0.921748 0.0308319 0.987059 -0.0150415 1.04586 0.00461854C6.12094 2.04978 7.57096 1.25008 10.7649 1.99079C12.0777 2.29888 13.7041 4.21295 14.1745 4.69145C14.2006 4.71113 14.2006 4.75045 14.1809 4.78323Z" fill="#16191D"/>
<path d="M18.5965 15.9922C18.5376 16.1756 18.5507 16.3921 18.4332 16.5494C18.2894 16.7592 17.9368 16.7788 17.7669 16.5887C17.6559 16.4904 17.6559 16.3331 17.6167 16.2085C17.362 15.0876 17.1138 13.9666 16.8656 12.8391C16.8395 12.7606 16.8656 12.7081 16.9439 12.6754C17.0681 12.6425 17.0811 12.7802 17.1202 12.859C17.4011 13.6259 17.6623 14.3993 17.9498 15.1662C18.0412 15.4285 18.3483 15.3432 18.5507 15.4089C18.7662 15.5464 18.6356 15.8021 18.5965 15.9922Z" fill="#16191D"/>
<path d="M18.9294 12.8983C18.9556 12.9704 18.9164 13.0556 18.838 13.0686C18.7923 13.0752 18.7531 13.0686 18.7401 13.0031C18.5505 12.6229 18.3873 12.2231 18.1913 11.8429C17.9367 11.6265 17.6688 11.4037 17.5122 11.0956C17.2313 10.5974 17.2573 9.94849 17.5709 9.46997C17.5969 9.43718 17.6165 9.39786 17.6428 9.36508C17.6885 9.29954 17.7864 9.31265 17.8125 9.39131C17.8321 9.45031 17.8451 9.50929 17.8714 9.56173C18.224 10.6695 18.5638 11.7904 18.9294 12.8983Z" fill="#16191D"/>
<path d="M18.9817 7.62149C18.9687 7.91646 18.8577 8.19177 18.7858 8.47364C18.7792 8.4933 18.7728 8.50641 18.7532 8.51296C18.7075 8.53264 18.6618 8.49985 18.6618 8.45398C18.6682 8.06722 18.8054 7.68704 18.7075 7.30684C18.5638 6.789 18.211 6.33671 18.185 5.78608C18.1718 5.49766 18.2437 5.2158 18.3026 4.93393C18.0934 4.49475 17.9955 3.99 18.1065 3.5115C18.1261 3.4525 18.1327 3.4525 18.1653 3.49837C18.3679 3.79336 18.6356 4.08834 18.6356 4.47507C18.6095 5.0257 18.309 5.57632 18.5115 6.12695C18.6748 6.61857 19.0274 7.07742 18.9817 7.62149Z" fill="#16191D"/>
<path d="M20.7061 5.72053C20.693 6.44158 20.066 7.01842 20.1379 7.75259C20.1379 8.03446 20.2096 8.32288 20.177 8.60474C20.1313 8.85382 19.8504 8.89316 19.6481 8.95216C19.5305 9.0046 19.3998 8.86695 19.4325 8.74895C19.4325 7.8968 19.4325 7.0381 19.4325 6.18595C19.4455 5.83198 19.5305 5.45833 19.7721 5.18958C19.9223 5.01259 20.079 4.83561 20.2423 4.65862C20.2749 4.61928 20.2946 4.57341 20.2881 4.52752C20.2749 4.3702 20.2423 4.23254 20.3142 4.049C20.4252 3.81958 20.569 3.68192 20.7191 3.53116C20.7453 3.50494 20.7844 3.51805 20.791 3.55082C20.8956 4.01623 20.791 4.52096 20.5754 4.94049C20.6277 5.18958 20.7061 5.45177 20.7061 5.72053Z" fill="#16191D"/>
<path d="M28.9555 3.08524C28.0672 3.33432 27.6557 3.63584 27.3031 3.91771C27.3031 3.91771 28.1065 3.63584 29.2625 3.51131C32.5415 3.15079 32.7308 4.37657 36.4016 2.95413C36.5257 2.93447 36.5583 3.03279 36.5257 3.08524C36.0358 3.93739 35.4937 4.8813 33.4428 4.96651C31.209 5.0583 30.0464 4.16025 27.9496 4.42901C26.6107 4.59944 25.9183 5.01896 25.5329 5.27461C30.1051 4.39623 29.7263 6.41518 34.2069 5.34016C34.2592 5.32704 34.3181 5.31393 34.3704 5.32049C34.4878 5.33359 34.5337 5.47782 34.4617 5.55648C34.4291 5.5958 34.3834 5.63514 34.3507 5.67446C33.7629 6.31029 33.1423 7.00513 31.0521 6.84781C28.5963 6.66426 28.4396 5.13696 23.7498 6.30374C28.2958 6.28408 28.2175 7.77862 31.6401 7.33288C31.7577 7.31978 31.8294 7.46399 31.7381 7.54265C31.6858 7.58852 31.6269 7.62786 31.5812 7.66719C31.0653 8.07359 30.3141 8.57177 28.9033 8.28335C25.964 7.66719 26.3365 6.44795 22.5546 7.11657C25.5002 7.19523 25.2979 8.34235 28.322 8.62422C28.322 8.62422 28.322 8.62422 28.3285 8.62422C28.4918 8.64388 28.5376 8.86019 28.4004 8.95197C28.2958 9.02408 28.1782 9.07651 28.0672 9.1224C25.8596 9.9811 24.8341 7.20178 22.1235 7.82451C24.0634 7.99493 23.9065 8.65043 25.6571 9.12895C25.8464 9.1814 25.827 9.43705 25.6178 9.45671C23.5409 9.66647 23.7238 8.26369 22.45 8.21125C22.1104 8.19814 21.7969 8.38169 21.627 8.68322C21.1242 9.56158 21.3265 10.3941 21.2939 10.8464C21.4115 11.3183 21.5879 11.7773 21.5944 12.2753C21.601 12.6228 21.5683 12.9833 21.4571 13.3176C21.2482 14.0124 21.0392 14.7073 20.8237 15.4087C20.778 15.5528 20.7844 15.7102 20.8367 15.8478C20.915 16.0577 20.9935 16.2609 21.0262 16.4837C21.1045 16.8573 21.0522 17.244 20.9216 17.6046C20.6473 18.2797 20.3729 18.9549 20.0986 19.6366C20.0463 19.7611 20.0073 19.8924 19.9157 19.9972C19.7787 20.0234 19.7917 19.8465 19.8047 19.7611C20.0726 17.2374 20.3272 14.7138 20.5885 12.1901L20.7976 11.5871C20.3861 11.941 20.2032 12.4326 19.9353 12.8719C19.9027 12.9767 19.746 12.9963 19.7133 12.8785C19.7394 12.4392 19.7981 12.0001 19.8113 11.5608C19.8504 11.1151 19.844 10.6628 19.9942 10.2368C20.1639 9.80413 20.4905 9.45671 20.7453 9.08308C21.1632 8.54556 21.4768 7.93594 21.6923 7.29355C21.823 6.90026 22.0974 6.55284 22.45 6.33652C23.6715 5.56303 24.3833 4.89441 25.5395 4.01605C26.6041 3.20977 27.4271 2.58048 27.8975 2.3904C30.0464 1.50547 34.3638 2.45595 38.0607 0.0437099C38.152 -0.00873478 38.2696 0.0961371 38.1979 0.2469C37.8517 1.12528 37.4402 1.68901 36.4604 2.17409C33.6387 3.57031 30.399 2.67882 28.9555 3.08524Z" fill="#16191D"/>
<path d="M20.3861 4.59956C20.3861 4.59956 20.1443 4.17349 19.5565 4.12104C19.1124 4.08172 18.91 4.23249 18.91 4.23249C18.91 4.23249 19.4455 4.07517 19.8636 4.4488C20.2816 4.82243 20.053 5.14364 20.053 5.14364C20.053 5.14364 20.5101 4.87488 20.3861 4.59956Z" fill="#16191D"/>
<path d="M20.3599 4.54062C20.3599 4.54062 20.0529 4.21288 19.4259 4.18665C19.4259 4.18665 19.7981 4.27841 19.844 4.48162C19.9223 4.86837 19.5827 5.38621 19.5174 5.63531C19.4651 5.85818 20.3599 4.54062 20.3599 4.54062Z" fill="#16191D"/>
<path d="M75.6703 13.5042C74.8201 13.6451 73.9595 13.7105 73.0981 13.6996C71.4826 13.6996 69.7502 12.6312 69.7502 9.64816V7.90229C69.7502 4.7393 71.5663 3.83971 73.2127 3.83971C74.0355 3.83233 74.8574 3.89326 75.6703 4.02185C75.7848 4.03518 75.8906 4.08627 75.8906 4.21732V4.86812C75.8906 4.95919 75.84 4.99919 75.7231 4.99919H75.6724C74.9097 4.93476 74.3148 4.9081 73.2148 4.9081C72.0137 4.9081 70.9271 5.55892 70.9271 7.90229V9.64816C70.9271 11.7984 71.897 12.6446 73.1003 12.6446C73.8872 12.6446 74.4227 12.5935 74.7268 12.5667V8.84187C74.7241 8.80899 74.7281 8.77589 74.7386 8.74462C74.7489 8.71335 74.7657 8.68455 74.7875 8.66002C74.8094 8.63546 74.836 8.61568 74.8658 8.60189C74.8956 8.58809 74.9277 8.58055 74.9604 8.57977H75.6592C75.7256 8.5832 75.7882 8.61239 75.8337 8.66125C75.8794 8.71009 75.9044 8.77482 75.9039 8.84187V13.2176C75.9058 13.2858 75.8832 13.3524 75.8403 13.4051C75.7973 13.4578 75.7368 13.493 75.6703 13.5042Z" fill="#B8BBBD"/>
<path d="M80.7218 7.35592C80.1201 7.33186 79.5176 7.37583 78.9255 7.48697V13.3487C78.9287 13.4123 78.9077 13.4746 78.8666 13.5228C78.8256 13.5712 78.768 13.6019 78.7051 13.6085H78.0329C77.9678 13.6051 77.9068 13.5759 77.8629 13.5273C77.8191 13.4785 77.7963 13.4144 77.7993 13.3487V7.01828C77.8031 6.95288 77.8265 6.89015 77.8661 6.83825C77.9059 6.78636 77.9601 6.7477 78.0219 6.72731C78.758 6.4008 79.6507 6.36304 80.7218 6.36304C80.8915 6.36304 80.9952 6.37636 80.9952 6.5585V7.15601C80.9952 7.29151 80.9688 7.35592 80.7218 7.35592Z" fill="#B8BBBD"/>
<path d="M85.0107 13.6996C83.111 13.6996 82.1456 12.4359 82.1456 10.5211V9.53045C82.1456 7.61578 83.1153 6.35413 85.0107 6.35413C86.9062 6.35413 87.8761 7.61578 87.8761 9.53045V10.5211C87.8761 12.4359 86.8996 13.6996 85.0107 13.6996ZM86.7563 9.53045C86.7563 8.19773 86.2253 7.3559 85.0107 7.3559C83.7964 7.3559 83.2784 8.19107 83.2784 9.53045V10.5211C83.2784 11.8537 83.7964 12.6978 85.0107 12.6978C86.2253 12.6978 86.7563 11.8627 86.7563 10.5211V9.53045Z" fill="#B8BBBD"/>
<path d="M92.1871 13.6996H92.0638C91.1821 13.6996 89.4013 13.2042 89.4013 10.6388V6.70508C89.3985 6.67193 89.4026 6.63858 89.4133 6.60713C89.424 6.57567 89.4411 6.54681 89.4636 6.52237C89.4859 6.49794 89.513 6.47846 89.5434 6.46517C89.5737 6.45189 89.6064 6.44508 89.6392 6.44519H90.3116C90.3441 6.44569 90.3764 6.45294 90.406 6.46649C90.4358 6.48005 90.4624 6.49962 90.4843 6.52399C90.5063 6.54837 90.5229 6.57703 90.5334 6.60817C90.5439 6.63933 90.5479 6.67231 90.5452 6.70508V10.6388C90.5452 12.1937 91.2063 12.6978 92.0704 12.6978H92.1871C93.0511 12.6978 93.7123 12.2025 93.7123 10.6388V6.70508C93.7096 6.67249 93.7135 6.63968 93.7239 6.60869C93.7342 6.57769 93.7507 6.54913 93.7724 6.5248C93.794 6.50046 93.8204 6.48083 93.8499 6.46716C93.8793 6.45346 93.9113 6.446 93.9437 6.44519H94.6159C94.6486 6.44569 94.6807 6.45294 94.7105 6.46649C94.7402 6.48005 94.7669 6.49962 94.7889 6.52399C94.8106 6.54837 94.8274 6.57703 94.8379 6.60817C94.8483 6.63933 94.8524 6.67231 94.8495 6.70508V10.6388C94.8495 13.2042 93.0643 13.6996 92.1871 13.6996Z" fill="#B8BBBD"/>
<path d="M99.2553 13.6997C98.7484 13.6929 98.2428 13.6454 97.7433 13.5576V15.9143C97.7433 15.9468 97.7371 15.9788 97.7248 16.0088C97.7125 16.0386 97.6944 16.0657 97.6718 16.0888C97.6489 16.1116 97.622 16.1298 97.5924 16.1421C97.5626 16.1545 97.5308 16.1609 97.4987 16.1609H96.8375C96.8059 16.1605 96.7747 16.1539 96.7458 16.1414C96.7169 16.1287 96.6909 16.1104 96.6691 16.0873C96.6471 16.0645 96.6302 16.0371 96.6191 16.0075C96.6079 15.9779 96.6027 15.9461 96.6039 15.9143V6.94955C96.6039 6.78075 96.6436 6.703 96.875 6.65192C97.6539 6.46158 98.4518 6.361 99.2532 6.35205C101.179 6.35205 102.072 7.61369 102.072 9.56836V10.5035C102.074 12.5537 101.142 13.6997 99.2553 13.6997ZM100.935 9.57057C100.935 8.20231 100.536 7.31827 99.2553 7.31827C98.7487 7.32123 98.2432 7.3643 97.7433 7.4471V12.6048C98.2433 12.6874 98.7487 12.7314 99.2553 12.7358C100.523 12.7358 100.935 11.9028 100.935 10.5146V9.57057Z" fill="#B8BBBD"/>
<path d="M53.1738 13.593C52.5919 13.6841 50.9696 13.7996 50.4077 13.7996C47.9128 13.7996 46.22 13.1688 46.22 10.0103V4.25292C46.2206 4.21957 46.2277 4.18667 46.2411 4.15614C46.2545 4.12562 46.2736 4.09807 46.2977 4.07512C46.3216 4.05216 46.3499 4.03425 46.3808 4.02245C46.4119 4.01064 46.4449 4.00518 46.4779 4.00636H48.585C48.618 4.00488 48.6512 4.01013 48.6823 4.02182C48.7133 4.03352 48.7419 4.05139 48.766 4.07441C48.7899 4.09743 48.8091 4.1251 48.8223 4.15576C48.8355 4.18644 48.8425 4.21948 48.8429 4.25292V10.0103C48.8429 11.1831 49.2308 11.5651 50.1498 11.5651C50.5647 11.5638 50.9791 11.5371 51.3907 11.4852V4.25292C51.3909 4.21948 51.3979 4.18644 51.4111 4.15576C51.4243 4.1251 51.4436 4.09743 51.4677 4.07441C51.4917 4.05139 51.5201 4.03352 51.5512 4.02182C51.5822 4.01013 51.6154 4.00488 51.6486 4.00636H53.7423C53.8107 4.00332 53.8772 4.0275 53.9281 4.07362C53.9788 4.11977 54.0095 4.18417 54.0134 4.25292V12.5891C54.0134 13.3177 53.793 13.502 53.1738 13.593Z" fill="#16191D"/>
<path d="M58.0711 13.6835H55.9508C55.883 13.6819 55.8185 13.6535 55.7711 13.6044C55.7238 13.5554 55.6972 13.4897 55.6972 13.4215V4.25229C55.6979 4.21933 55.7049 4.18681 55.7179 4.15658C55.7309 4.12635 55.7498 4.09899 55.7734 4.0761C55.797 4.05321 55.8246 4.03521 55.8551 4.02314C55.8855 4.01106 55.9181 4.00515 55.9508 4.00574H58.0711C58.1041 4.00424 58.1373 4.00949 58.1683 4.02119C58.1994 4.03289 58.2279 4.05078 58.2519 4.07379C58.276 4.09679 58.2952 4.12447 58.3084 4.15515C58.3216 4.18581 58.3286 4.21886 58.329 4.25229V13.4215C58.3291 13.4558 58.3227 13.4897 58.3099 13.5215C58.297 13.5533 58.2781 13.5822 58.2542 13.6067C58.2301 13.631 58.2017 13.6502 58.1701 13.6635C58.1387 13.6767 58.105 13.6835 58.0711 13.6835Z" fill="#16191D"/>
<path d="M65.5669 13.5662C64.9789 13.7351 64.3688 13.8138 63.7574 13.7994C61.3793 13.7994 59.777 12.4978 59.777 9.51471V8.18199C59.777 5.19001 61.3793 3.88839 63.7574 3.88839C64.3688 3.87516 64.9786 3.95377 65.5669 4.12162C65.7741 4.18826 65.8514 4.22601 65.8514 4.40816V6.07629C65.8514 6.24508 65.7741 6.32283 65.631 6.32283H65.5912C64.9905 6.2521 64.3865 6.21355 63.7817 6.20734C63.0831 6.20734 62.4592 6.51831 62.4592 8.17309V9.50582C62.4592 11.1473 63.0808 11.4738 63.7817 11.4738C64.3865 11.467 64.9905 11.4277 65.5912 11.3561H65.6154C65.7698 11.3561 65.8358 11.4338 65.8358 11.6026V13.2796C65.8514 13.4485 65.7741 13.5017 65.5669 13.5662Z" fill="#16191D"/>
</svg>
